<svg xmlns="http://www.w3.org/2000/svg" viewBox="0 0 150.23 150.5">
  <defs>
    <style>
      .cls-1 {
        fill: #b53737;
      }
    </style>
  </defs>
  <title>icon_not_done</title>
  <g id="Layer_2" data-name="Layer 2">
    <g id="Layer_1-2" data-name="Layer 1">
      <g>
        <path class="cls-1" d="M75.12,0a75.25,75.25,0,1,0,75.11,75.39C150.23,33.77,116.46,0,75.12,0Zm0,141.31a66.2,66.2,0,1,1,66.2-66.2A66.31,66.31,0,0,1,75.12,141.31Z"/>
        <path class="cls-1" d="M70.41,27.59h9.42A5.44,5.44,0,0,1,85.27,33V51.52a5.44,5.44,0,0,1,0,.64L80.58,91.63a5.44,5.44,0,0,1-5.41,4.81h0a5.44,5.44,0,0,1-5.41-4.79L65,52.16a5.44,5.44,0,0,1,0-.65V33A5.44,5.44,0,0,1,70.41,27.59Zm1.65,76.56h6.11a6.64,6.64,0,0,1,6.64,6.64v5.46a6.64,6.64,0,0,1-6.64,6.64H72.06a6.64,6.64,0,0,1-6.64-6.64V110.8A6.64,6.64,0,0,1,72.06,104.16Z"/>
      </g>
    </g>
  </g>
</svg>
