<svg xmlns="http://www.w3.org/2000/svg" viewBox="0 0 150.23 150.5">
  <defs>
    <style>
      .cls-1 {
        fill: #739730;
      }
    </style>
  </defs>
  <title>icon_done</title>
  <g id="Layer_2" data-name="Layer 2">
    <g id="Layer_1-2" data-name="Layer 1">
      <g>
        <path class="cls-1" d="M75.12,0a75.25,75.25,0,1,0,75.11,75.39C150.23,33.77,116.46,0,75.12,0Zm0,141.31a66.2,66.2,0,1,1,66.2-66.2A66.31,66.31,0,0,1,75.12,141.31Z"/>
        <path class="cls-1" d="M62.75,108.27a5.59,5.59,0,0,1-4-1.73L38.35,85.1a5.55,5.55,0,0,1,.2-7.83,5.53,5.53,0,0,1,7.83.2L62.49,94.37l41.1-50.12a5.55,5.55,0,0,1,4.27-2h0a5.48,5.48,0,0,1,3.53,1.25,5.56,5.56,0,0,1,.77,7.81l-45.08,55a5.55,5.55,0,0,1-4.08,2h-.24Z"/>
      </g>
    </g>
  </g>
</svg>
