<svg xmlns="http://www.w3.org/2000/svg" viewBox="0 0 150.23 150.5">
  <defs>
    <style>
      .cls-1 {
        fill: #6f6f6f;
      }
    </style>
  </defs>
  <title>icon_trash</title>
  <g id="Layer_2" data-name="Layer 2">
    <g id="Layer_1-2" data-name="Layer 1">
      <g>
        <path class="cls-1" d="M71.46,31.6A4.4,4.4,0,0,0,67.05,36v.18H44.69a4.2,4.2,0,1,0,0,8.39h60.84a4.2,4.2,0,0,0,0-8.39H83.17V36a4.4,4.4,0,0,0-4.4-4.39H71.46ZM48.12,48.11a7.64,7.64,0,0,0-7.59,8.45l6,55.51a7.64,7.64,0,0,0,7.6,6.82h42a7.63,7.63,0,0,0,7.59-6.82l6-55.51a7.64,7.64,0,0,0-7.59-8.45ZM61.07,64.25A1.73,1.73,0,0,1,62.8,66v35a1.72,1.72,0,0,1-1.73,1.73A1.75,1.75,0,0,1,59.32,101V66a1.77,1.77,0,0,1,1.75-1.73Zm14.06,0A1.73,1.73,0,0,1,76.86,66v35a1.74,1.74,0,0,1-3.48,0V66a1.75,1.75,0,0,1,1.75-1.73Zm14,0A1.73,1.73,0,0,1,90.9,66v35a1.73,1.73,0,1,1-3.46,0V66a1.74,1.74,0,0,1,1.73-1.73Z"/>
        <path class="cls-1" d="M75.12,0a75.25,75.25,0,1,0,75.11,75.39C150.23,33.77,116.46,0,75.12,0Zm0,141.31a66.2,66.2,0,1,1,66.2-66.2A66.31,66.31,0,0,1,75.12,141.31Z"/>
      </g>
    </g>
  </g>
</svg>
