<svg xmlns="http://www.w3.org/2000/svg" viewBox="0 0 150.23 150.23">
  <defs>
    <style>
      .cls-1 {
        fill: #fde3bc;
      }

      .cls-2 {
        fill: #faaf41;
      }
    </style>
  </defs>
  <title>icon_done</title>
  <g id="Layer_2" data-name="Layer 2">
    <g id="Layer_1-2" data-name="Layer 1">
      <g>
        <g>
          <rect class="cls-1" x="4" y="4" width="142.23" height="142.23" rx="6" ry="6"/>
          <path class="cls-2" d="M140.23,8a2,2,0,0,1,2,2V140.23a2,2,0,0,1-2,2H10a2,2,0,0,1-2-2V10a2,2,0,0,1,2-2H140.23m0-8H10A10,10,0,0,0,0,10V140.23a10,10,0,0,0,10,10H140.23a10,10,0,0,0,10-10V10a10,10,0,0,0-10-10Z"/>
        </g>
        <path class="cls-2" d="M59,118.41a7.3,7.3,0,0,1-5.19-2.26l-26.69-28a7.25,7.25,0,0,1,.26-10.24,7.23,7.23,0,0,1,10.24.26l21,22.09,53.71-65.5a7.25,7.25,0,0,1,5.58-2.64h0a7.16,7.16,0,0,1,4.61,1.64,7.27,7.27,0,0,1,1,10.2L64.6,115.75a7.25,7.25,0,0,1-5.33,2.64H59Z"/>
      </g>
    </g>
  </g>
</svg>
